<svg width="76" height="76" viewBox="0 0 76 76" fill="none" xmlns="http://www.w3.org/2000/svg">
<circle cx="38" cy="38" r="38" fill="whitesmoke"/>
<path d="M50.155 16.6293C49.9357 17.2197 49.9474 17.8712 50.1876 18.4534C50.4278 19.0356 50.879 19.5057 51.4508 19.7696C52.0227 20.0336 52.6731 20.072 53.272 19.8771C53.871 19.6822 54.3743 19.2685 54.6813 18.7186C54.9884 18.1687 55.0766 17.5231 54.9283 16.911C54.7799 16.2989 54.406 15.7653 53.8813 15.417C53.3566 15.0686 52.7197 14.9311 52.098 15.0321C51.4763 15.133 50.9156 15.4648 50.528 15.9613L50.155 16.6293ZM47.298 15.7093C42.6909 13.8492 37.6127 13.4971 32.793 14.7037C27.9732 15.9102 23.6599 18.6134 20.4726 22.4248C17.2853 26.2362 15.388 30.9597 15.0533 35.9169C14.7185 40.8741 15.9636 45.8098 18.6095 50.0151C21.2555 54.2204 25.1662 57.4789 29.78 59.3225C34.3938 61.1661 39.4732 61.4999 44.2886 60.2761C49.1039 59.0522 53.4075 56.3336 56.5811 52.5108C59.7547 48.688 61.6351 43.9576 61.952 38.9993H55.435C54.675 47.6853 47.383 54.4993 38.5 54.4993C29.111 54.4993 21.5 46.8883 21.5 37.4993C21.5 28.1103 29.111 20.4993 38.5 20.4993C47.383 20.4993 54.675 27.3133 55.435 35.9993H65V37.4993C65.0002 43.2044 63.1591 48.7573 59.7506 53.3323C56.3421 57.9073 51.5482 61.2601 46.0815 62.8923C40.6149 64.5246 34.7674 64.349 29.4085 62.3917C24.0497 60.4344 19.4655 56.7999 16.3377 52.0287C13.2098 47.2574 11.7053 41.6041 12.0478 35.9092C12.3903 30.2144 14.5615 24.7821 18.2386 20.4201C21.9157 16.058 26.9024 12.9991 32.4572 11.6982C38.012 10.3972 43.8384 10.9237 49.07 13.1993C50.1058 12.3742 51.4045 11.9505 52.7276 12.006C54.0506 12.0615 55.3093 12.5926 56.2723 13.5016C57.2353 14.4106 57.838 15.6365 57.9697 16.9542C58.1014 18.2718 57.7532 19.5928 56.9892 20.6744C56.2252 21.756 55.0966 22.5257 53.8107 22.842C52.5247 23.1583 51.1679 23 49.9893 22.3962C48.8107 21.7925 47.8895 20.7837 47.3949 19.5553C46.9003 18.3269 46.8666 16.9613 47.298 15.7093ZM49.398 35.9993C48.669 30.6333 44.067 26.4993 38.5 26.4993C32.425 26.4993 27.5 31.4243 27.5 37.4993C27.5 43.5743 32.425 48.4993 38.5 48.4993C44.066 48.4993 48.667 44.3653 49.399 38.9993H43.793C43.431 40.2765 42.6192 41.3796 41.5075 42.1052C40.3958 42.8307 39.0592 43.1297 37.7443 42.9469C36.4294 42.7642 35.225 42.112 34.3533 41.1108C33.4817 40.1095 33.0015 38.8268 33.0015 37.4993C33.0015 36.1718 33.4817 34.8891 34.3533 33.8878C35.225 32.8866 36.4294 32.2344 37.7443 32.0517C39.0592 31.8689 40.3958 32.1679 41.5075 32.8934C42.6192 33.619 43.431 34.7221 43.793 35.9993H49.398ZM36 37.4993C36 36.8363 36.2634 36.2004 36.7323 35.7315C37.2011 35.2627 37.837 34.9993 38.5 34.9993C39.1631 34.9993 39.7989 35.2627 40.2678 35.7315C40.7366 36.2004 41 36.8363 41 37.4993C41 38.1623 40.7366 38.7982 40.2678 39.2671C39.7989 39.7359 39.1631 39.9993 38.5 39.9993C37.837 39.9993 37.2011 39.7359 36.7323 39.2671C36.2634 38.7982 36 38.1623 36 37.4993Z" fill="black"/>
</svg>
